<!DOCTYPE svg PUBLIC "-//W3C//DTD SVG 20010904//EN" "http://www.w3.org/TR/2001/REC-SVG-20010904/DTD/svg10.dtd">
<svg version="1.0" xmlns="http://www.w3.org/2000/svg" width="370px" height="278px" viewBox="0 0 3700 2780" preserveAspectRatio="xMidYMid meet">
<g id="layer101" fill="#07ad3f" stroke="none">
 <path d="M0 1390 l0 -1390 1850 0 1850 0 0 1390 0 1390 -1850 0 -1850 0 0 -1390z"/>
 </g>
<g id="layer102" fill="#2dae55" stroke="none">
 <path d="M0 1390 l0 -1390 1850 0 1850 0 0 1390 0 1390 -1850 0 -1850 0 0 -1390z m2118 548 c-3 -7 -24 -70 -47 -140 l-43 -128 -44 0 -44 0 0 -138 0 -138 -115 -354 c-126 -388 -124 -385 -227 -447 -80 -49 -164 -67 -278 -60 -273 16 -434 151 -506 427 -24 93 -34 269 -34 638 l0 352 671 0 c533 0 670 -3 667 -12z"/>
 <path d="M1013 1388 c3 -206 9 -297 19 -333 33 -111 85 -177 173 -217 41 -18 68 -23 150 -23 87 0 107 3 155 26 102 48 176 152 200 278 5 30 10 166 10 302 l0 249 -356 0 -356 0 5 -282z"/>
 </g>
<g id="layer103" fill="#3db064" stroke="none">
 <path d="M0 1390 l0 -1390 1850 0 1850 0 0 1390 0 1390 -1850 0 -1850 0 0 -1390z m2234 488 c-13 -40 -34 -103 -45 -140 l-20 -68 -114 0 -115 0 1 -272 c0 -150 4 -295 8 -322 7 -44 3 -66 -38 -194 l-45 -145 -14 34 c-8 19 -18 45 -24 59 -9 23 -11 22 -43 -37 -122 -216 -323 -302 -577 -249 -198 42 -339 189 -392 408 -27 111 -35 254 -36 636 l0 362 739 0 740 0 -25 -72z"/>
 <path d="M1010 1447 c0 -340 22 -456 102 -543 61 -66 123 -88 243 -88 123 0 182 22 249 94 99 106 116 178 116 513 l0 247 -355 0 -355 0 0 -223z"/>
 </g>
<g id="layer104" fill="#4cb174" stroke="none">
 <path d="M0 1390 l0 -1390 1850 0 1850 0 0 1390 0 1390 -1850 0 -1850 0 0 -1390z m2410 558 c0 -2 -20 -64 -44 -138 l-44 -135 -191 -3 -191 -2 0 -268 c1 -345 19 -449 93 -530 l21 -22 -39 -120 c-22 -66 -43 -120 -47 -120 -4 0 -26 24 -49 53 -37 45 -68 104 -93 172 -6 17 -12 11 -39 -40 -39 -73 -125 -167 -184 -202 -72 -42 -155 -63 -251 -63 -293 1 -478 154 -544 450 -19 86 -21 135 -25 533 l-5 437 816 0 c449 0 816 -1 816 -2z"/>
 <path d="M1013 1393 c5 -303 14 -359 65 -443 33 -54 98 -105 155 -122 23 -7 83 -13 132 -13 78 0 97 4 146 28 105 51 177 156 198 287 6 36 11 172 11 303 l0 237 -356 0 -357 0 6 -277z"/>
 </g>
<g id="layer105" fill="#5cb286" stroke="none">
 <path d="M0 1390 l0 -1390 1850 0 1850 0 0 1390 0 1390 -1850 0 -1850 0 0 -1390z m2575 558 c1 -2 -18 -65 -42 -140 l-44 -138 -274 0 -275 0 0 -257 c0 -142 5 -288 10 -325 21 -147 82 -243 186 -294 30 -14 54 -28 54 -31 0 -25 -77 -243 -85 -243 -24 0 -131 78 -174 126 -38 42 -83 123 -105 189 -6 16 -13 8 -42 -45 -48 -91 -132 -173 -224 -218 l-74 -37 -141 1 c-150 1 -206 14 -299 68 -65 38 -143 128 -181 208 -74 158 -85 251 -85 757 l0 394 897 -7 c493 -3 897 -7 898 -8z"/>
 <path d="M1020 1400 c0 -159 5 -291 11 -322 37 -177 142 -262 324 -262 172 0 277 76 336 245 21 59 23 85 27 337 l4 272 -351 0 -351 0 0 -270z"/>
 </g>
<g id="layer106" fill="#6cb598" stroke="none">
 <path d="M0 1390 l0 -1390 1850 0 1850 0 0 1390 0 1390 -1850 0 -1850 0 0 -1390z m2348 563 l362 -6 -1 -101 c0 -56 -6 -117 -13 -136 l-13 -35 -369 -5 -369 -5 0 -295 c1 -276 2 -300 23 -367 26 -85 70 -146 135 -190 51 -34 157 -63 232 -63 43 0 46 -1 40 -22 -35 -114 -78 -245 -84 -251 -5 -4 -40 -1 -78 7 -158 33 -286 131 -356 275 l-42 86 -25 -50 c-41 -82 -141 -179 -228 -223 -72 -35 -82 -37 -187 -41 -289 -9 -472 122 -554 394 -34 113 -41 227 -41 643 l0 392 603 0 c332 0 766 -3 965 -7z"/>
 <path d="M1020 1400 c0 -159 5 -291 11 -322 37 -177 141 -261 324 -262 171 -1 277 76 336 245 21 59 23 86 27 337 l4 272 -351 0 -351 0 0 -270z"/>
 </g>
<g id="layer107" fill="#7ab8a7" stroke="none">
 <path d="M0 1390 l0 -1390 1850 0 1850 0 0 1390 0 1390 -1850 0 -1850 0 0 -1390z m2528 563 l182 -6 0 -94 0 -93 96 0 96 0 -6 -27 c-4 -16 -40 -129 -81 -253 l-74 -225 -1 208 0 207 -393 0 -394 0 -6 -127 c-15 -287 -4 -478 34 -578 25 -68 100 -148 164 -175 135 -58 318 -47 426 25 l37 24 -59 -177 -58 -177 -38 -7 c-65 -12 -185 -8 -252 7 -152 36 -281 140 -347 280 l-36 75 -35 -57 c-41 -69 -132 -165 -188 -197 -65 -39 -140 -56 -241 -56 -117 0 -180 13 -270 56 -126 59 -228 192 -268 349 -29 116 -36 233 -36 627 l0 398 783 0 c431 0 866 -3 965 -7z"/>
 <path d="M1022 1373 c4 -281 5 -301 26 -354 49 -124 117 -178 246 -199 123 -19 249 20 318 99 51 57 87 148 98 242 6 46 10 180 10 297 l0 212 -351 0 -351 0 4 -297z"/>
 </g>
<g id="layer108" fill="#84bbb2" stroke="none">
 <path d="M0 1390 l0 -1390 1850 0 1850 0 0 1390 0 1390 -1850 0 -1850 0 0 -1390z m2664 564 l46 -7 0 -93 0 -94 130 0 130 0 0 -153 0 -153 -141 -434 c-77 -239 -147 -445 -154 -456 -8 -12 -43 -33 -79 -47 -180 -73 -413 -59 -554 32 -97 63 -181 170 -216 275 -5 16 -14 8 -44 -43 -42 -72 -115 -150 -175 -188 -73 -46 -141 -63 -255 -63 -181 0 -298 46 -402 156 -68 73 -110 156 -141 275 -21 79 -22 111 -26 542 l-5 457 920 0 c505 0 940 -3 966 -6z"/>
 <path d="M1022 1378 c4 -324 9 -353 71 -444 104 -154 400 -159 523 -9 85 105 107 219 102 545 l-3 195 -348 3 -348 2 3 -292z"/>
 <path d="M1952 1353 c4 -356 7 -377 77 -469 72 -95 241 -150 384 -125 155 27 239 97 298 246 22 57 23 73 27 363 l4 302 -397 0 -396 0 3 -317z"/>
 </g>
<g id="layer109" fill="#ffffff" stroke="none">
 <path d="M0 1390 l0 -1390 1850 0 1850 0 0 1390 0 1390 -1850 0 -1850 0 0 -1390z m2718 468 l3 -98 125 0 126 0 -4 -372 c-4 -345 -6 -379 -26 -453 -32 -116 -85 -216 -152 -288 -115 -123 -251 -177 -444 -177 -74 0 -131 6 -167 16 -146 43 -262 139 -326 272 l-39 80 -30 -57 c-42 -81 -138 -174 -217 -211 -121 -57 -265 -63 -412 -16 -140 44 -236 131 -300 271 -66 142 -68 161 -72 673 l-4 462 968 -2 968 -3 3 -97z"/>
 <path d="M1022 1383 c4 -266 6 -293 27 -356 30 -93 101 -168 180 -191 70 -20 182 -20 251 0 74 22 167 114 201 199 23 57 24 72 27 348 l3 287 -346 0 -347 0 4 -287z"/>
 <path d="M1950 1383 c0 -380 15 -444 125 -541 61 -53 119 -73 236 -79 207 -12 337 72 399 256 18 55 20 85 20 356 l0 295 -390 0 -390 0 0 -287z"/>
 </g>

</svg>